<mxfile host="app.diagrams.net" modified="2022-11-07T14:37:32.060Z" agent="5.0 (Windows NT 10.0; Win64; x64) AppleWebKit/537.36 (KHTML, like Gecko) Chrome/107.0.0.0 Safari/537.36" etag="qeQj6JW6GdvrkPNufx5E" version="20.5.3" type="github">
  <diagram id="C5RBs43oDa-KdzZeNtuy" name="Page-1">
    <mxGraphModel dx="1422" dy="762" grid="1" gridSize="10" guides="1" tooltips="1" connect="1" arrows="1" fold="1" page="1" pageScale="1" pageWidth="827" pageHeight="1169" math="0" shadow="0">
      <root>
        <mxCell id="WIyWlLk6GJQsqaUBKTNV-0" />
        <mxCell id="WIyWlLk6GJQsqaUBKTNV-1" parent="WIyWlLk6GJQsqaUBKTNV-0" />
        <mxCell id="3I9cZPLuvL2-j8E1OE_F-3" style="edgeStyle=orthogonalEdgeStyle;rounded=0;orthogonalLoop=1;jettySize=auto;html=1;exitX=0.5;exitY=1;exitDx=0;exitDy=0;entryX=0.5;entryY=0;entryDx=0;entryDy=0;" edge="1" parent="WIyWlLk6GJQsqaUBKTNV-1" source="3I9cZPLuvL2-j8E1OE_F-0" target="3I9cZPLuvL2-j8E1OE_F-1">
          <mxGeometry relative="1" as="geometry" />
        </mxCell>
        <mxCell id="3I9cZPLuvL2-j8E1OE_F-0" value="浏览器" style="rounded=0;whiteSpace=wrap;html=1;" vertex="1" parent="WIyWlLk6GJQsqaUBKTNV-1">
          <mxGeometry x="340" y="80" width="120" height="60" as="geometry" />
        </mxCell>
        <mxCell id="3I9cZPLuvL2-j8E1OE_F-4" style="edgeStyle=orthogonalEdgeStyle;rounded=0;orthogonalLoop=1;jettySize=auto;html=1;exitX=0.5;exitY=1;exitDx=0;exitDy=0;entryX=0.5;entryY=0;entryDx=0;entryDy=0;" edge="1" parent="WIyWlLk6GJQsqaUBKTNV-1" source="3I9cZPLuvL2-j8E1OE_F-1" target="3I9cZPLuvL2-j8E1OE_F-2">
          <mxGeometry relative="1" as="geometry" />
        </mxCell>
        <mxCell id="3I9cZPLuvL2-j8E1OE_F-1" value="Security Filter - Tomcat" style="rounded=0;whiteSpace=wrap;html=1;" vertex="1" parent="WIyWlLk6GJQsqaUBKTNV-1">
          <mxGeometry x="312" y="210" width="176" height="60" as="geometry" />
        </mxCell>
        <mxCell id="3I9cZPLuvL2-j8E1OE_F-12" style="rounded=0;orthogonalLoop=1;jettySize=auto;html=1;exitX=0;exitY=1;exitDx=0;exitDy=0;entryX=0.433;entryY=0.033;entryDx=0;entryDy=0;entryPerimeter=0;" edge="1" parent="WIyWlLk6GJQsqaUBKTNV-1" source="3I9cZPLuvL2-j8E1OE_F-2" target="3I9cZPLuvL2-j8E1OE_F-6">
          <mxGeometry relative="1" as="geometry" />
        </mxCell>
        <mxCell id="3I9cZPLuvL2-j8E1OE_F-13" style="edgeStyle=none;rounded=0;orthogonalLoop=1;jettySize=auto;html=1;exitX=1;exitY=1;exitDx=0;exitDy=0;entryX=0.5;entryY=0;entryDx=0;entryDy=0;" edge="1" parent="WIyWlLk6GJQsqaUBKTNV-1" source="3I9cZPLuvL2-j8E1OE_F-2" target="3I9cZPLuvL2-j8E1OE_F-5">
          <mxGeometry relative="1" as="geometry" />
        </mxCell>
        <mxCell id="3I9cZPLuvL2-j8E1OE_F-2" value="检查用户是否已认证" style="rhombus;whiteSpace=wrap;html=1;" vertex="1" parent="WIyWlLk6GJQsqaUBKTNV-1">
          <mxGeometry x="315" y="330" width="170" height="150" as="geometry" />
        </mxCell>
        <mxCell id="3I9cZPLuvL2-j8E1OE_F-5" value="HTTP 401/403" style="rounded=0;whiteSpace=wrap;html=1;" vertex="1" parent="WIyWlLk6GJQsqaUBKTNV-1">
          <mxGeometry x="485" y="525" width="120" height="60" as="geometry" />
        </mxCell>
        <mxCell id="3I9cZPLuvL2-j8E1OE_F-14" style="edgeStyle=none;rounded=0;orthogonalLoop=1;jettySize=auto;html=1;exitX=0.5;exitY=1;exitDx=0;exitDy=0;entryX=0.5;entryY=0;entryDx=0;entryDy=0;" edge="1" parent="WIyWlLk6GJQsqaUBKTNV-1" source="3I9cZPLuvL2-j8E1OE_F-6" target="3I9cZPLuvL2-j8E1OE_F-7">
          <mxGeometry relative="1" as="geometry" />
        </mxCell>
        <mxCell id="3I9cZPLuvL2-j8E1OE_F-6" value="DispatchServlet" style="rounded=0;whiteSpace=wrap;html=1;" vertex="1" parent="WIyWlLk6GJQsqaUBKTNV-1">
          <mxGeometry x="195" y="525" width="120" height="60" as="geometry" />
        </mxCell>
        <mxCell id="3I9cZPLuvL2-j8E1OE_F-7" value="RestController,Controller" style="rounded=0;whiteSpace=wrap;html=1;" vertex="1" parent="WIyWlLk6GJQsqaUBKTNV-1">
          <mxGeometry x="176" y="620" width="158" height="60" as="geometry" />
        </mxCell>
      </root>
    </mxGraphModel>
  </diagram>
</mxfile>
